<?xml version="1.0" standalone="no"?>
<!DOCTYPE svg PUBLIC "-//W3C//DTD SVG 20010904//EN"
 "http://www.w3.org/TR/2001/REC-SVG-20010904/DTD/svg10.dtd">
<svg version="1.0" xmlns="http://www.w3.org/2000/svg"
 width="284.000000pt" height="177.000000pt" viewBox="0 0 284.000000 177.000000"
 preserveAspectRatio="xMidYMid meet">

<g transform="translate(0.000000,177.000000) scale(0.100000,-0.100000)"
fill="#000000" stroke="none">
<path d="M0 1756 c0 -12 22 -15 103 -18 86 -3 105 0 120 15 17 16 12 17 -103
17 -97 0 -120 -3 -120 -14z"/>
<path d="M1470 1760 c0 -6 7 -22 16 -35 8 -13 14 -34 12 -46 -2 -14 4 -26 17
-33 11 -6 23 -15 27 -21 5 -6 8 -4 9 5 3 26 8 65 10 80 5 34 -2 60 -15 60 -12
0 -13 -7 -5 -32 11 -41 11 -48 -1 -48 -15 0 -50 42 -50 62 0 10 -4 18 -10 18
-5 0 -10 -5 -10 -10z"/>
<path d="M1650 1748 c0 -36 39 -328 45 -338 3 -4 7 -30 10 -57 2 -26 7 -60 10
-74 4 -22 1 -28 -18 -33 -37 -10 -53 -7 -77 14 -13 11 -37 20 -56 20 -18 0
-39 7 -48 15 -8 8 -24 15 -36 15 -20 0 -21 4 -16 59 3 33 8 70 11 84 5 17 2
26 -10 31 -9 3 -13 11 -9 18 5 8 0 9 -15 5 -15 -3 -24 0 -28 9 -8 22 -57 14
-64 -11 -3 -11 -1 -26 4 -32 7 -10 1 -13 -27 -13 -24 0 -36 5 -36 14 0 7 -6
18 -13 25 -11 8 -14 1 -16 -39 -1 -27 3 -59 9 -71 15 -26 5 -37 -20 -21 -23
14 -54 16 -45 2 3 -5 -5 -20 -17 -32 -13 -13 -22 -29 -20 -35 2 -7 -1 -13 -6
-13 -14 0 -23 28 -11 36 16 10 -21 31 -63 36 l-38 4 0 -38 c0 -21 -4 -38 -10
-38 -5 0 -10 11 -10 25 0 31 -5 31 -53 -2 -21 -15 -45 -28 -52 -29 -24 -4 -83
-36 -101 -55 -17 -18 -16 -23 14 -103 46 -120 45 -126 -26 -126 -55 0 -58 2
-75 33 -9 17 -19 63 -23 102 -8 98 -18 97 -11 -1 3 -46 12 -95 21 -113 17 -31
16 -33 -12 -69 -16 -20 -34 -46 -40 -57 -6 -11 -12 -14 -12 -7 0 6 -8 12 -18
12 -10 0 -23 13 -31 33 -8 17 -22 50 -32 71 -25 52 -25 54 15 61 32 6 34 9 26
35 -5 16 -6 31 -3 34 3 3 0 13 -7 21 -7 9 -16 12 -19 7 -4 -6 -28 -6 -64 -1
-32 5 -62 7 -66 5 -4 -3 -8 2 -8 10 0 13 12 15 69 11 49 -3 71 0 79 10 6 7 18
13 25 13 8 0 14 6 14 14 0 12 -5 12 -31 -1 -17 -8 -44 -13 -62 -10 -18 2 -49
-2 -71 -9 -21 -8 -43 -11 -50 -7 -6 4 -6 0 2 -9 10 -13 10 -17 0 -21 -10 -4
-10 -6 1 -6 11 -1 11 -4 1 -16 -9 -11 -10 -34 -4 -87 7 -66 9 -69 14 -33 6 44
18 50 63 28 17 -9 37 -33 52 -66 13 -29 40 -81 60 -116 19 -35 35 -76 35 -90
0 -45 11 -71 30 -71 22 0 17 26 -24 109 -31 64 -32 74 -7 44 10 -12 21 -20 23
-17 3 2 10 -22 17 -54 6 -32 20 -82 32 -112 29 -77 61 -192 55 -197 -4 -5
-185 -21 -243 -22 -16 -1 -21 -5 -17 -16 4 -10 2 -13 -8 -10 -7 3 -40 -8 -73
-23 -33 -16 -71 -33 -85 -37 -14 -4 -43 -16 -65 -27 -38 -19 -36 -16 35 56 51
52 93 85 132 103 l58 27 1 70 c0 39 2 79 4 89 2 9 -1 15 -6 11 -5 -3 -9 4 -9
16 0 12 5 18 10 15 6 -3 10 -2 10 3 0 6 -6 12 -14 15 -9 3 -12 15 -9 31 3 14
1 26 -5 26 -5 0 -10 -6 -9 -12 1 -41 -3 -49 -23 -43 -28 9 -34 -12 -25 -90 5
-50 10 -65 23 -65 13 0 13 -3 -4 -16 -16 -13 -16 -15 -2 -10 10 3 18 1 18 -4
0 -6 -5 -10 -11 -10 -5 0 -7 -5 -4 -10 4 -6 -5 -10 -22 -8 -36 2 -81 -22 -135
-72 -58 -53 -279 -175 -289 -159 -4 7 -8 -60 -8 -150 l-2 -161 486 0 c267 0
483 5 481 9 -3 5 7 25 24 45 16 21 30 42 32 47 5 16 39 17 91 3 27 -7 78 -16
113 -20 73 -7 84 -19 59 -58 l-17 -26 53 0 52 0 -20 22 c-11 13 -30 40 -42 61
-13 20 -29 37 -37 37 -8 0 -14 6 -14 14 0 9 16 15 48 19 26 2 54 8 63 11 13 6
23 -4 43 -39 14 -26 23 -52 19 -58 -4 -6 0 -8 10 -4 10 4 23 -5 39 -29 l23
-34 668 0 668 0 -3 22 c-2 18 -12 24 -48 31 -25 4 -51 9 -58 11 -7 1 -18 8
-25 15 -9 9 -3 11 33 5 25 -4 49 -10 55 -15 14 -14 47 -11 43 4 -3 6 -22 14
-44 17 -27 4 -34 7 -22 12 9 4 29 5 43 2 37 -7 30 24 -10 46 -16 10 -29 23
-27 30 1 6 -2 9 -8 5 -5 -3 -10 -2 -10 4 0 5 4 12 9 15 12 8 33 -19 23 -29 -4
-5 -1 -5 6 -1 9 5 9 12 2 27 -7 13 -7 19 0 19 5 0 10 -4 10 -10 0 -5 7 -10 15
-10 13 0 15 94 15 785 l0 785 -595 0 -595 0 0 -22z m233 -35 c-7 -2 -19 -2
-25 0 -7 3 -2 5 12 5 14 0 19 -2 13 -5z m64 -35 c-3 -8 -6 -5 -6 6 -1 11 2 17
5 13 3 -3 4 -12 1 -19z m-63 1 c4 6 12 9 17 5 6 -3 1 -13 -11 -21 -17 -12 -20
-22 -15 -51 7 -44 11 -49 18 -22 3 11 1 23 -4 26 -19 11 -8 19 30 21 32 1 37
-2 28 -11 -6 -7 -19 -11 -28 -9 -8 3 -16 -1 -16 -9 -1 -7 -4 -28 -8 -45 -5
-21 -4 -33 3 -33 5 0 10 -15 10 -32 1 -18 6 -49 11 -68 6 -19 11 -39 11 -45 0
-6 -30 -11 -68 -12 -37 -1 -83 -3 -102 -6 l-35 -4 4 45 c2 31 6 40 12 31 6 -9
7 -3 3 17 -8 39 11 54 78 63 40 5 52 11 48 21 -9 30 -11 155 -2 141 7 -9 12
-10 16 -2z m136 -49 c0 -5 -5 -10 -11 -10 -5 0 -7 5 -4 10 3 6 8 10 11 10 2 0
4 -4 4 -10z m-54 -52 c3 -3 -7 -5 -21 -5 -14 0 -28 3 -30 7 -5 9 42 6 51 -2z
m4 -58 c-8 -5 -24 -10 -35 -10 -17 0 -17 2 -5 10 8 5 24 10 35 10 17 0 17 -2
5 -10z m47 -6 c-3 -3 -12 -4 -19 -1 -8 3 -5 6 6 6 11 1 17 -2 13 -5z m-14 -21
c-7 -2 -19 -2 -25 0 -7 3 -2 5 12 5 14 0 19 -2 13 -5z m-613 -39 c0 -14 -4
-23 -10 -19 -5 3 -10 15 -10 26 0 10 5 19 10 19 6 0 10 -12 10 -26z m-22 -52
c2 -7 -7 -12 -22 -12 -27 0 -35 15 -13 23 17 7 30 3 35 -11z m769 2 c-4 -5
-41 -11 -72 -13 -6 -1 -19 -21 -30 -46 -14 -30 -26 -45 -39 -45 -18 0 -18 1
-3 18 10 10 14 22 10 27 -5 4 -3 5 3 2 7 -4 14 0 17 8 4 9 1 12 -9 8 -9 -3
-14 2 -14 15 0 21 1 22 114 29 15 1 26 0 23 -3z m73 -4 c0 -5 -7 -7 -15 -4 -8
4 -15 8 -15 10 0 2 7 4 15 4 8 0 15 -4 15 -10z m60 0 c0 -5 -4 -10 -10 -10 -5
0 -10 5 -10 10 0 6 5 10 10 10 6 0 10 -4 10 -10z m-395 -40 c3 -6 -1 -7 -9 -4
-18 7 -21 14 -7 14 6 0 13 -4 16 -10z m450 -50 c-3 -5 -12 -10 -18 -10 -7 0
-6 4 3 10 19 12 23 12 15 0z m-325 -43 c0 -24 -27 -87 -37 -87 -6 0 -9 88 -4
123 2 15 41 -18 41 -36z m100 27 c0 -8 -5 -12 -10 -9 -6 4 -8 11 -5 16 9 14
15 11 15 -7z m-928 -34 c-22 -38 -37 -43 -72 -25 -39 20 -44 32 -12 28 15 -3
43 3 62 11 19 8 36 15 37 16 1 0 -6 -13 -15 -30z m912 -15 c-4 -8 -8 -15 -10
-15 -2 0 -4 7 -4 15 0 8 4 15 10 15 5 0 7 -7 4 -15z m83 -30 c0 -9 -10 -15
-24 -15 -12 0 -23 -4 -23 -10 0 -5 -7 -10 -16 -10 -8 0 -12 5 -9 10 9 14 -8
13 -23 -2 -7 -7 -12 -9 -12 -5 0 4 -9 3 -20 -3 -14 -8 -20 -8 -20 0 0 14 41
29 90 32 23 1 44 6 46 10 8 12 11 10 11 -7z m-2 -34 c3 -5 0 -13 -6 -17 -7 -4
-9 -3 -5 4 3 5 0 13 -6 15 -9 4 -10 6 -1 6 6 1 14 -3 18 -8z m-155 -5 c0 -3
-4 -8 -10 -11 -5 -3 -10 -1 -10 4 0 6 5 11 10 11 6 0 10 -2 10 -4z m-640 -27
c11 -7 12 -12 3 -15 -7 -3 -9 -13 -6 -21 5 -12 2 -15 -10 -10 -12 4 -17 1 -17
-9 0 -10 -6 -14 -15 -11 -19 8 -31 -13 -14 -24 10 -6 8 -9 -8 -9 -13 0 -23 6
-23 13 0 6 -5 4 -11 -5 -5 -10 -17 -18 -24 -18 -8 0 -15 -4 -15 -10 0 -5 -10
-10 -21 -10 -19 0 -20 2 -8 16 12 15 11 16 -11 9 -14 -4 -22 -4 -17 0 4 5 15
9 25 10 25 2 84 56 77 72 -2 8 0 11 5 8 6 -3 20 1 32 9 26 19 38 20 58 5z
m590 1 c0 -5 -2 -10 -4 -10 -3 0 -8 5 -11 10 -3 6 -1 10 4 10 6 0 11 -4 11
-10z m223 -9 c4 -15 1 -18 -12 -14 -31 11 -35 17 -15 24 10 4 20 8 20 8 1 1 4
-8 7 -18z m7 -41 c0 -5 -7 -7 -15 -4 -8 4 -15 8 -15 10 0 2 7 4 15 4 8 0 15
-4 15 -10z m-1074 -75 c-17 -13 -18 -15 -3 -15 9 0 17 -7 17 -16 0 -8 4 -13 9
-9 18 11 21 -13 6 -55 -18 -50 -19 -64 -5 -55 11 7 14 -18 4 -28 -9 -9 -35 4
-28 15 3 5 -13 0 -36 -12 -23 -12 -44 -19 -48 -16 -3 3 9 11 26 17 17 6 33 17
36 25 7 18 -8 18 -23 0 -15 -17 -104 -41 -109 -28 -3 11 -52 4 -69 -10 -17
-13 -39 -4 -53 21 -9 18 -6 23 32 41 23 11 47 20 52 19 6 0 2 -4 -9 -9 -18 -8
-17 -9 7 -9 14 -1 28 4 30 11 3 7 15 13 29 13 80 4 85 5 85 24 0 18 -2 18 -28
5 -15 -8 -37 -14 -49 -14 -18 0 -20 2 -8 16 7 9 29 23 48 33 20 9 35 22 34 29
-2 6 4 9 12 6 7 -3 22 -1 32 5 26 15 31 13 9 -4z m1068 8 c-5 -5 -12 -12 -16
-18 -4 -6 -8 -2 -8 8 0 9 7 17 17 17 9 0 12 -3 7 -7z m-967 -75 c-3 -8 -6 -5
-6 6 -1 11 2 17 5 13 3 -3 4 -12 1 -19z m292 -12 c28 -45 26 -60 -4 -32 -14
13 -25 33 -25 45 0 29 5 27 29 -13z m-705 -38 c-2 -54 -13 -98 -25 -98 -5 0
-9 -6 -9 -14 0 -19 -14 -28 -33 -20 -21 8 -50 79 -44 106 10 39 44 68 80 68
31 0 32 -1 31 -42z m876 -105 c0 -53 -2 -94 -4 -92 -9 11 -15 189 -6 189 6 0
10 -40 10 -97z m247 65 c-3 -8 -6 -5 -6 6 -1 11 2 17 5 13 3 -3 4 -12 1 -19z
m50 -30 c-3 -7 -5 -2 -5 12 0 14 2 19 5 13 2 -7 2 -19 0 -25z m35 -75 c6 -16
13 -67 16 -114 l4 -86 -63 -7 c-123 -12 -180 -10 -190 5 -7 11 -9 11 -9 1 0
-7 -4 -11 -9 -7 -5 3 -13 0 -17 -7 -14 -22 -23 25 -23 125 -1 55 3 96 8 93 5
-3 26 1 47 8 23 9 78 15 132 15 92 1 93 1 104 -26z m342 -24 c-10 -18 -22 -8
-20 16 1 22 2 23 13 9 7 -9 10 -21 7 -25z m-705 -147 c1 -45 -2 -53 -16 -50
-13 2 -16 16 -15 76 1 49 -3 72 -11 72 -7 0 -4 5 6 11 9 5 18 20 18 32 3 34
17 -81 18 -141z m716 100 c-3 -3 -11 0 -18 7 -9 10 -8 11 6 5 10 -3 15 -9 12
-12z m-1865 -12 c0 -5 -9 -12 -21 -15 -16 -5 -18 -9 -8 -21 10 -12 9 -13 -5
-8 -22 9 -20 35 4 41 11 3 17 10 13 16 -3 6 -1 7 5 3 7 -4 12 -11 12 -16z
m1602 -12 c-8 -8 -9 -4 -5 13 4 13 8 18 11 10 2 -7 -1 -18 -6 -23z m-765 -58
c0 -36 2 -72 4 -80 3 -11 -6 -16 -36 -17 -124 -8 -165 -15 -165 -29 0 -10 13
-14 46 -14 l47 0 -6 -152 c-8 -177 -11 -182 -90 -175 -26 2 -50 7 -53 10 -3 3
-8 24 -11 46 -6 46 -13 54 -38 45 -13 -6 -14 -9 -3 -16 9 -6 5 -7 -11 -3 -16
5 -21 4 -17 -4 4 -6 2 -11 -3 -11 -26 0 -8 27 25 39 l37 13 -7 67 c-4 36 -9
80 -12 98 -6 30 -4 32 29 38 20 4 40 4 46 0 7 -3 11 3 11 15 0 20 -4 22 -50
18 -49 -3 -50 -3 -56 29 -3 17 -3 36 1 42 3 6 1 11 -5 11 -7 0 -9 8 -5 20 4
11 2 20 -4 20 -22 0 -11 30 12 30 12 1 45 7 72 15 31 9 86 14 145 12 l96 -2 1
-65z m990 34 c-3 -3 -12 -4 -19 -1 -8 3 -5 6 6 6 11 1 17 -2 13 -5z m-211 -76
c-1 -12 -9 -24 -17 -26 -9 -2 -10 -1 -3 5 6 4 10 18 9 30 -1 12 2 20 7 17 4
-3 6 -15 4 -26z m-436 -42 c0 -3 -4 -8 -10 -11 -5 -3 -10 -1 -10 4 0 6 5 11
10 11 6 0 10 -2 10 -4z m-10 -41 c0 -8 -4 -15 -10 -15 -5 0 -7 7 -4 15 4 8 8
15 10 15 2 0 4 -7 4 -15z m978 -62 c-3 -55 -4 -58 -30 -61 -23 -3 -28 1 -29
20 0 23 0 23 -9 2 -5 -14 -17 -21 -34 -21 -24 0 -26 3 -26 48 0 49 0 49 28 43
15 -4 29 -10 32 -14 3 -4 14 3 25 16 34 40 46 31 43 -33z m-278 -25 c0 -57 0
-58 -28 -58 -28 0 -29 2 -31 54 -1 45 2 55 16 58 41 9 43 6 43 -54z m68 9 c2
-36 7 -47 20 -47 12 0 13 3 5 8 -20 13 -13 81 9 87 29 10 38 -3 38 -51 0 -32
-4 -44 -15 -44 -8 0 -15 -4 -15 -10 0 -5 7 -10 15 -10 11 0 15 -12 15 -44 0
-38 -3 -45 -22 -49 l-23 -4 23 -8 c18 -6 22 -15 22 -46 0 -37 -2 -39 -30 -39
-27 0 -30 3 -31 33 -2 31 -2 32 -6 3 -6 -39 3 -44 70 -47 40 -2 57 -6 57 -16
0 -8 -8 -12 -22 -9 -84 15 -99 19 -104 27 -3 5 -18 9 -35 9 -28 0 -29 2 -29
46 l0 46 38 -4 c20 -1 36 0 35 5 -2 4 -3 27 -3 52 0 40 -2 45 -22 44 -17 -1
-19 -2 -5 -6 9 -2 17 -9 17 -14 0 -5 -8 -10 -17 -10 -17 -1 -17 -2 0 -6 10 -3
17 -14 17 -29 0 -20 -5 -24 -29 -24 -25 0 -29 4 -32 33 -2 17 -3 62 -1 99 3
52 7 68 20 71 31 8 37 1 40 -46z m-1921 -19 c-3 -8 -6 -5 -6 6 -1 11 2 17 5
13 3 -3 4 -12 1 -19z m1164 -16 c-17 -32 -38 -45 -44 -28 -7 18 17 46 39 46
11 0 12 -4 5 -18z m-1163 -66 c2 -22 -2 -51 -10 -65 -31 -62 -63 -102 -84
-107 -25 -6 -31 -19 -14 -29 14 -8 3 -25 -16 -25 -9 0 -12 5 -8 11 5 8 1 8
-14 0 -27 -14 -29 -14 -29 4 0 8 3 12 6 11 3 -2 7 7 7 20 1 15 -3 23 -10 21
-6 -3 -10 -10 -9 -16 4 -16 -27 -13 -33 3 -3 8 -12 12 -20 9 -8 -3 -14 0 -14
6 0 6 11 11 24 11 44 0 86 12 79 23 -4 6 0 8 10 4 10 -3 17 -2 17 3 0 15 -87
12 -127 -5 -20 -8 -39 -13 -41 -10 -11 10 33 42 113 85 44 23 82 45 85 49 12
16 56 40 70 38 10 -1 16 -16 18 -41z m2137 30 c28 -2 53 -5 56 -5 3 -1 6 -19
7 -41 2 -38 0 -40 -28 -40 -27 0 -30 3 -30 33 0 17 -4 27 -8 21 -4 -6 -15 -13
-24 -17 -11 -4 -15 -12 -12 -22 4 -9 1 -15 -9 -15 -11 0 -16 13 -19 49 -2 29
1 47 7 45 6 -2 33 -6 60 -8z m-1735 -6 c0 -5 -4 -10 -10 -10 -5 0 -10 5 -10
10 0 6 5 10 10 10 6 0 10 -4 10 -10z m113 -7 c10 -3 16 -11 14 -17 -5 -18 -92
-57 -110 -50 -15 5 -13 12 14 46 22 27 36 37 48 32 9 -3 24 -9 34 -11z m1545
-30 c3 -42 2 -43 -27 -43 -30 0 -31 1 -31 46 0 44 1 45 28 42 24 -3 27 -7 30
-45z m-1035 20 c-7 -2 -19 -2 -25 0 -7 3 -2 5 12 5 14 0 19 -2 13 -5z m-60
-17 c3 -8 0 -20 -8 -26 -10 -8 -13 -5 -11 15 1 28 11 33 19 11z m-746 -12 c17
-3 22 -11 21 -29 -3 -29 -16 -33 -25 -7 -6 14 -8 13 -13 -8 -4 -15 -13 -24
-23 -24 -9 1 -17 -4 -17 -11 0 -7 -7 -19 -17 -26 -15 -13 -15 -12 -4 10 15 28
6 37 -47 47 -34 7 -56 -1 -102 -33 l-25 -18 25 31 c14 18 27 31 30 31 3 -1 23
2 44 7 29 6 36 10 25 17 -11 7 -9 9 9 9 13 0 20 -4 17 -10 -3 -5 -1 -10 6 -10
6 0 9 8 6 20 -5 21 5 22 90 4z m710 -6 c-3 -8 -6 -5 -6 6 -1 11 2 17 5 13 3
-3 4 -12 1 -19z m1199 -25 c-10 -10 -19 5 -10 18 6 11 8 11 12 0 2 -7 1 -15
-2 -18z m-1856 8 c0 -6 -4 -13 -10 -16 -5 -3 -10 1 -10 9 0 9 5 16 10 16 6 0
10 -4 10 -9z m643 -23 c23 -18 51 -43 62 -55 11 -13 38 -32 60 -43 23 -11 32
-19 22 -20 -26 0 -55 17 -94 56 -18 19 -42 34 -52 34 -26 0 -66 34 -57 48 10
17 13 16 59 -20z m1312 22 c3 -5 1 -10 -4 -10 -6 0 -11 5 -11 10 0 6 2 10 4
10 3 0 8 -4 11 -10z m-1235 -8 c0 -13 -12 -22 -22 -16 -10 6 -1 24 13 24 5 0
9 -4 9 -8z m123 -10 c-2 -7 4 -12 13 -12 8 0 12 -4 9 -10 -3 -5 -24 -10 -45
-10 -21 0 -50 -4 -64 -10 -31 -11 -45 5 -23 27 28 28 115 40 110 15z m431 -4
c-33 -38 -58 -57 -77 -58 -11 0 -15 -5 -11 -11 3 -6 22 -9 40 -7 24 3 34 0 34
-9 0 -11 -9 -12 -37 -7 -85 15 -119 56 -69 83 27 15 80 28 115 30 24 1 24 1 5
-21z m-1144 -8 c0 -5 -7 -10 -15 -10 -8 0 -15 5 -15 10 0 6 7 10 15 10 8 0 15
-4 15 -10z m1450 -35 c0 -43 -1 -45 -30 -45 -28 0 -29 2 -28 45 0 43 2 45 29
45 28 0 29 -2 29 -45z m310 35 c0 -5 -4 -10 -10 -10 -5 0 -10 -4 -10 -10 0 -5
11 -10 25 -10 14 0 25 5 25 10 0 6 -4 10 -10 10 -5 0 -10 5 -10 10 0 6 20 10
45 10 25 0 45 -4 45 -9 0 -6 -15 -7 -32 -5 -32 6 -33 4 -35 -30 -1 -20 3 -36
9 -36 5 0 8 6 5 13 -3 7 2 22 10 32 15 19 15 19 8 -2 -4 -14 -2 -23 4 -23 6 0
11 -10 11 -23 0 -16 -6 -23 -20 -24 -11 -1 -18 2 -15 7 6 10 -15 8 -32 -3 -7
-5 -13 -4 -13 1 0 14 -25 22 -39 13 -9 -6 -8 -17 5 -44 10 -21 20 -37 24 -37
3 0 12 16 19 36 7 19 15 34 17 31 7 -7 -26 -77 -36 -77 -6 0 -18 16 -27 35
-15 31 -29 40 -55 36 -5 0 -8 9 -9 21 0 13 -3 17 -6 11 -2 -7 -16 -13 -29 -13
-22 0 -24 4 -24 45 l0 45 80 0 c47 0 80 -4 80 -10z m-1814 -14 c26 -19 18 -24
-49 -32 -48 -6 -57 -4 -57 9 0 34 70 49 106 23z m104 -6 c-6 -11 -20 -25 -33
-31 -18 -10 -17 -6 7 20 34 36 41 39 26 11z m1180 10 c0 -5 -11 -10 -24 -10
-28 0 -51 -24 -40 -41 5 -9 2 -10 -12 -5 -10 5 -25 9 -31 9 -24 1 -13 17 12
17 17 0 23 4 19 14 -4 11 4 16 33 19 21 2 39 4 41 5 1 1 2 -2 2 -8z m130 -20
c0 -24 -43 -48 -101 -55 -33 -3 -38 -3 -19 4 14 5 21 9 17 10 -13 2 20 31 35
31 7 1 24 7 38 15 32 18 30 18 30 -5z m-1666 -65 c-13 -13 -24 -29 -24 -35 0
-14 -53 -13 -69 3 -9 7 -12 8 -7 0 4 -7 -1 -9 -13 -6 -11 3 -22 12 -25 20 -5
11 -2 13 10 9 8 -3 23 -2 33 3 10 6 29 11 44 13 14 2 28 6 31 9 3 2 14 5 24 6
18 1 18 0 -4 -22z m281 5 c-11 -11 -36 -22 -55 -25 l-35 -5 40 15 c22 9 44 20
49 25 6 6 12 10 15 10 3 0 -3 -9 -14 -20z m-825 6 c0 -2 -8 -10 -17 -17 -16
-13 -17 -12 -4 4 13 16 21 21 21 13z m2027 -2 c-3 -3 -12 -4 -19 -1 -8 3 -5 6
6 6 11 1 17 -2 13 -5z m-1970 -39 c13 -30 -3 -47 -22 -22 -7 9 -15 14 -18 10
-4 -3 -7 3 -7 15 0 31 32 28 47 -3z m30 -17 c-3 -8 -6 -5 -6 6 -1 11 2 17 5
13 3 -3 4 -12 1 -19z m2467 14 c2 -4 -4 -8 -14 -8 -10 0 -16 4 -14 8 3 4 9 8
14 8 5 0 11 -4 14 -8z m113 2 c-3 -3 -12 -4 -19 -1 -8 3 -5 6 6 6 11 1 17 -2
13 -5z"/>
<path d="M1120 956 c0 -8 -3 -23 -7 -33 -6 -16 -5 -16 10 -4 18 15 23 51 7 51
-5 0 -10 -6 -10 -14z"/>
<path d="M1015 901 c-11 -5 -24 -6 -29 -3 -5 3 -6 1 -3 -5 3 -5 -19 -9 -58 -8
-49 1 -62 -1 -58 -12 8 -21 163 2 178 28 7 11 -2 11 -30 0z"/>
<path d="M1046 537 c3 -10 9 -15 12 -12 3 3 0 11 -7 18 -10 9 -11 8 -5 -6z"/>
<path d="M1070 320 c0 -5 5 -10 11 -10 5 0 7 5 4 10 -3 6 -8 10 -11 10 -2 0
-4 -4 -4 -10z"/>
<path d="M2612 410 c0 -14 2 -19 5 -12 2 6 2 18 0 25 -3 6 -5 1 -5 -13z"/>
<path d="M1380 251 c0 -5 7 -12 16 -15 14 -5 15 -4 4 9 -14 17 -20 19 -20 6z"/>
<path d="M2626 215 c-3 -9 0 -15 8 -15 8 0 16 7 20 15 3 9 0 15 -8 15 -8 0
-16 -7 -20 -15z"/>
<path d="M2586 213 c-10 -10 -7 -33 4 -33 5 0 8 6 7 13 -2 6 1 2 7 -10 11 -26
21 -29 29 -10 5 13 -37 50 -47 40z"/>
<path d="M1411 1684 c-13 -30 -14 -29 17 -38 25 -8 29 6 9 42 l-13 23 -13 -27z"/>
<path d="M1465 1660 c3 -5 8 -10 11 -10 2 0 4 5 4 10 0 6 -5 10 -11 10 -5 0
-7 -4 -4 -10z"/>
<path d="M1029 1643 c-27 -16 -59 -62 -59 -83 0 -6 5 -8 10 -5 6 3 10 -3 10
-14 0 -10 -4 -21 -8 -23 -5 -1 -1 -28 9 -58 l17 -55 -5 71 c-4 45 -1 78 6 92
14 26 36 30 27 5 -6 -17 -5 -17 8 0 16 20 74 23 100 4 25 -18 56 -117 44 -140
-8 -16 -7 -16 9 -7 14 9 18 26 20 73 1 43 -1 56 -7 42 -7 -16 -9 -13 -9 18 -1
55 -47 97 -104 97 -23 0 -54 -8 -68 -17z"/>
<path d="M496 1595 c-3 -8 0 -15 7 -15 7 0 4 -5 -5 -11 -10 -5 -22 -18 -27
-28 -9 -15 -7 -18 12 -17 12 1 21 7 20 14 -2 6 6 16 17 22 22 12 25 8 33 -40
3 -16 5 -10 6 16 1 55 -47 101 -63 59z"/>
<path d="M437 1536 c-10 -25 -9 -86 2 -86 13 0 20 48 12 78 -6 22 -8 24 -14 8z"/>
<path d="M1024 1539 c-4 -7 -3 -14 3 -16 5 -2 8 -15 5 -28 -3 -20 -1 -24 11
-19 25 9 29 36 9 57 -15 15 -21 16 -28 6z"/>
<path d="M525 1530 c-3 -5 -1 -10 4 -10 6 0 11 5 11 10 0 6 -2 10 -4 10 -3 0
-8 -4 -11 -10z"/>
<path d="M1090 1527 c0 -19 20 -36 36 -30 20 7 17 23 -3 23 -15 0 -16 2 -3 10
12 8 11 10 -7 10 -13 0 -23 -6 -23 -13z"/>
<path d="M1536 1485 c4 -8 8 -15 10 -15 2 0 4 7 4 15 0 8 -4 15 -10 15 -5 0
-7 -7 -4 -15z"/>
<path d="M495 1480 c4 -6 11 -8 16 -5 14 9 11 15 -7 15 -8 0 -12 -5 -9 -10z"/>
<path d="M747 1466 c3 -16 10 -23 19 -19 13 5 12 8 -2 24 -22 24 -22 24 -17
-5z"/>
<path d="M786 1469 c12 -13 20 -16 22 -9 3 7 -2 16 -9 21 -25 16 -32 9 -13
-12z"/>
<path d="M697 1467 c-10 -27 3 -55 24 -50 10 3 19 9 19 14 0 5 -3 8 -7 7 -5
-2 -8 2 -8 7 0 6 3 9 8 8 11 -4 9 15 -3 22 -5 3 -10 0 -10 -7 0 -11 -2 -10 -9
0 -7 11 -9 11 -14 -1z"/>
<path d="M1070 1460 c-23 -8 -23 -8 7 -7 17 1 29 5 27 9 -3 4 -6 8 -7 7 -1 -1
-13 -5 -27 -9z"/>
<path d="M538 1445 c-2 -11 0 -33 5 -50 6 -20 5 -40 -3 -60 -11 -28 -13 -28
-20 -10 -7 17 -9 17 -9 3 -1 -12 -8 -17 -24 -16 -21 2 -24 7 -22 43 1 22 5 50
9 63 4 13 3 22 -2 22 -15 0 -45 -86 -39 -110 3 -11 1 -23 -4 -26 -5 -3 -7 -10
-4 -15 4 -5 -2 -6 -11 -2 -14 5 -16 3 -11 -11 4 -10 7 -21 7 -26 0 -17 31 -18
77 -1 98 37 137 35 72 -3 -42 -25 -31 -30 20 -10 40 16 41 17 35 53 -3 20 -12
47 -20 61 -17 33 -30 60 -42 90 -8 23 -10 23 -14 5z"/>
<path d="M1053 1418 c-11 -19 -13 -39 -2 -32 5 3 7 10 4 15 -4 5 -1 9 4 9 6 0
11 -7 11 -15 0 -20 27 -8 33 16 4 15 0 19 -18 19 -13 0 -27 -6 -32 -12z"/>
<path d="M1620 1420 c-20 -12 -24 -80 -4 -80 8 0 14 5 14 10 0 6 -5 10 -11 10
-8 0 -8 5 1 15 9 10 9 15 1 15 -6 0 -11 5 -11 10 0 6 6 10 14 10 8 0 18 5 21
10 8 12 -5 13 -25 0z"/>
<path d="M413 1395 c-9 -24 1 -27 15 -5 8 13 8 20 2 20 -6 0 -13 -7 -17 -15z"/>
<path d="M1120 1380 c0 -5 4 -10 9 -10 6 0 13 5 16 10 3 6 -1 10 -9 10 -9 0
-16 -4 -16 -10z"/>
<path d="M411 1334 c0 -11 3 -14 6 -6 3 7 2 16 -1 19 -3 4 -6 -2 -5 -13z"/>
<path d="M501 962 c0 -44 -3 -86 -7 -95 -3 -10 -2 -17 4 -17 5 0 12 28 16 61
9 86 8 129 -3 129 -5 0 -10 -35 -10 -78z"/>
<path d="M443 937 c4 -10 7 -27 7 -38 0 -10 4 -19 9 -19 10 0 -3 58 -15 69 -4
3 -4 -2 -1 -12z"/>
<path d="M461 844 c0 -11 3 -14 6 -6 3 7 2 16 -1 19 -3 4 -6 -2 -5 -13z"/>
<path d="M452 795 c0 -16 2 -22 5 -12 2 9 2 23 0 30 -3 6 -5 -1 -5 -18z"/>
<path d="M121 664 c0 -11 3 -14 6 -6 3 7 2 16 -1 19 -3 4 -6 -2 -5 -13z"/>
<path d="M235 525 c-66 -18 -145 -39 -175 -47 l-55 -14 -3 -57 c-2 -31 -1 -57
1 -57 2 0 64 34 138 76 210 119 219 125 219 129 0 3 -1 4 -2 4 -2 -1 -57 -16
-123 -34z"/>
<path d="M1126 68 c5 -8 2 -9 -10 -5 -12 5 -16 3 -13 -5 2 -7 9 -12 14 -11 5
1 10 -8 10 -19 2 -27 12 -36 22 -19 6 9 11 10 15 2 4 -6 18 -11 32 -11 19 0
24 5 24 24 0 24 -28 44 -39 29 -8 -11 -41 -13 -41 -2 0 5 8 9 18 10 14 0 14 2
-3 9 -29 12 -37 12 -29 -2z"/>
<path d="M1060 48 c-32 -48 -32 -48 -10 -48 12 0 19 4 16 9 -3 4 1 17 9 27 8
10 15 22 15 27 0 14 -16 7 -30 -15z"/>
<path d="M1086 25 c-5 -14 17 -28 28 -18 10 10 7 21 -8 26 -8 3 -17 0 -20 -8z"/>
</g>
</svg>
