<?xml version="1.0" standalone="no"?>
<!DOCTYPE svg PUBLIC "-//W3C//DTD SVG 20010904//EN"
 "http://www.w3.org/TR/2001/REC-SVG-20010904/DTD/svg10.dtd">
<svg version="1.0" xmlns="http://www.w3.org/2000/svg"
 width="512.000000pt" height="512.000000pt" viewBox="0 0 512.000000 512.000000"
 preserveAspectRatio="xMidYMid meet">

<g transform="translate(0.000000,512.000000) scale(0.100000,-0.100000)"
fill="#000000" stroke="none">
<path d="M2375 5054 c-16 -2 -73 -9 -125 -15 -435 -49 -869 -231 -1240 -518
-110 -85 -327 -302 -412 -412 -277 -358 -445 -751 -515 -1206 -23 -150 -23
-536 0 -686 112 -727 493 -1334 1087 -1732 330 -221 669 -348 1085 -407 135
-19 503 -16 650 5 373 55 731 192 1035 395 617 413 996 1025 1102 1777 17 119
16 493 -1 615 -88 635 -394 1199 -866 1597 -357 302 -802 502 -1265 568 -108
16 -467 29 -535 19z m480 -1139 c107 -19 268 -71 357 -116 360 -180 622 -530
697 -931 l8 -48 -366 0 -366 0 -19 48 c-34 82 -95 169 -165 234 -116 107 -248
158 -411 158 -373 0 -640 -294 -640 -704 0 -254 105 -468 289 -590 189 -125
430 -140 633 -39 128 65 250 210 295 354 l18 59 368 0 367 0 0 -24 c0 -44 -58
-249 -94 -335 -174 -412 -531 -696 -980 -778 -128 -24 -398 -23 -526 2 -510
97 -899 432 -1054 907 -48 146 -67 274 -67 442 0 243 41 428 140 631 208 426
597 688 1111 749 71 8 317 -3 405 -19z"/>
</g>
</svg>
